<?xml version="1.0" encoding="UTF-8" standalone="no"?>
<svg
   id="visual"
   viewBox="0 0 900 600"
   width="900"
   height="600"
   version="1.1"
   sodipodi:docname="bg7.svg"
   inkscape:version="1.4.2 (ebf0e940d0, 2025-05-08)"
   xmlns:inkscape="http://www.inkscape.org/namespaces/inkscape"
   xmlns:sodipodi="http://sodipodi.sourceforge.net/DTD/sodipodi-0.dtd"
   xmlns="http://www.w3.org/2000/svg"
   xmlns:svg="http://www.w3.org/2000/svg">
  <sodipodi:namedview
     id="namedview5"
     pagecolor="#ffffff"
     bordercolor="#000000"
     borderopacity="0.25"
     inkscape:showpageshadow="2"
     inkscape:pageopacity="0.0"
     inkscape:pagecheckerboard="0"
     inkscape:deskcolor="#d1d1d1"
     inkscape:zoom="1.0411111"
     inkscape:cx="450"
     inkscape:cy="299.67983"
     inkscape:window-width="1920"
     inkscape:window-height="1011"
     inkscape:window-x="0"
     inkscape:window-y="0"
     inkscape:window-maximized="1"
     inkscape:current-layer="visual" />
  <rect
     x="0"
     y="0"
     width="900"
     height="600"
     fill="#001220"
     id="rect1"
     style="fill:#101828;fill-opacity:1" />
  <defs
     id="defs2">
    <linearGradient
       id="grad1_0"
       x1="33.3%"
       y1="0%"
       x2="100%"
       y2="100%">
      <stop
         offset="20%"
         stop-color="#001220"
         stop-opacity="1"
         id="stop1" />
      <stop
         offset="80%"
         stop-color="#001220"
         stop-opacity="1"
         id="stop2" />
    </linearGradient>
  </defs>
  <defs
     id="defs4">
    <linearGradient
       id="grad2_0"
       x1="0%"
       y1="0%"
       x2="66.7%"
       y2="100%">
      <stop
         offset="20%"
         stop-color="#001220"
         stop-opacity="1"
         id="stop3" />
      <stop
         offset="80%"
         stop-color="#001220"
         stop-opacity="1"
         id="stop4" />
    </linearGradient>
  </defs>
  <g
     transform="translate(900, 0)"
     id="g4">
    <path
       d="M0 459.7C-30 435 -60.1 410.3 -91.2 399.7C-122.4 389.1 -154.7 392.6 -185.7 385.6C-216.7 378.6 -246.5 361.1 -271.2 340.1C-295.9 319.1 -315.5 294.6 -340.9 271.8C-366.2 249.1 -397.4 228.1 -414.2 199.5C-431 170.8 -433.5 134.6 -438.7 100.1C-443.9 65.6 -451.8 32.8 -459.7 0L0 0Z"
       fill="#9dd84e"
       id="path4"
       inkscape:label="path4"
       style="fill:#00c950;fill-opacity:1" />
  </g>
  <g
     transform="translate(0, 600)"
     id="g5">
    <path
       d="M0 -459.7C29.3 -434.8 58.6 -409.9 92.1 -403.6C125.6 -397.3 163.3 -409.6 193.5 -401.8C223.7 -394.1 246.6 -366.2 275.6 -345.6C304.6 -324.9 339.8 -311.4 357.3 -284.9C374.8 -258.5 374.4 -219 389.2 -187.4C404 -155.9 433.9 -132.2 448.2 -102.3C462.4 -72.4 461.1 -36.2 459.7 0L0 0Z"
       fill="#9dd84e"
       id="path5"
       style="fill:#00c950;fill-opacity:1" />
  </g>
</svg>
