<svg id="visual" viewBox="0 0 900 600" width="900" height="600" xmlns="http://www.w3.org/2000/svg" xmlns:xlink="http://www.w3.org/1999/xlink" version="1.1"><rect x="0" y="0" width="900" height="600" fill="#001220"></rect><defs><linearGradient id="grad1_0" x1="33.3%" y1="0%" x2="100%" y2="100%"><stop offset="20%" stop-color="#001220" stop-opacity="1"></stop><stop offset="80%" stop-color="#001220" stop-opacity="1"></stop></linearGradient></defs><defs><linearGradient id="grad2_0" x1="0%" y1="0%" x2="66.7%" y2="100%"><stop offset="20%" stop-color="#001220" stop-opacity="1"></stop><stop offset="80%" stop-color="#001220" stop-opacity="1"></stop></linearGradient></defs><g transform="translate(900, 0)"><path d="M0 459.7C-30 435 -60.1 410.3 -91.2 399.7C-122.4 389.1 -154.7 392.6 -185.7 385.6C-216.7 378.6 -246.5 361.1 -271.2 340.1C-295.9 319.1 -315.5 294.6 -340.9 271.8C-366.2 249.1 -397.4 228.1 -414.2 199.5C-431 170.8 -433.5 134.6 -438.7 100.1C-443.9 65.6 -451.8 32.8 -459.7 0L0 0Z" fill="#9dd84e"></path></g><g transform="translate(0, 600)"><path d="M0 -459.7C29.3 -434.8 58.6 -409.9 92.1 -403.6C125.6 -397.3 163.3 -409.6 193.5 -401.8C223.7 -394.1 246.6 -366.2 275.6 -345.6C304.6 -324.9 339.8 -311.4 357.3 -284.9C374.8 -258.5 374.4 -219 389.2 -187.4C404 -155.9 433.9 -132.2 448.2 -102.3C462.4 -72.4 461.1 -36.2 459.7 0L0 0Z" fill="#9dd84e"></path></g></svg>