<?xml version="1.0" encoding="UTF-8" standalone="no"?>
<svg
   viewBox="0 0 1000 1000"
   version="1.1"
   id="svg376"
   sodipodi:docname="106-italy.svg"
   inkscape:version="1.1.2 (0a00cf5339, 2022-02-04)"
   xmlns:inkscape="http://www.inkscape.org/namespaces/inkscape"
   xmlns:sodipodi="http://sodipodi.sourceforge.net/DTD/sodipodi-0.dtd"
   xmlns="http://www.w3.org/2000/svg"
   xmlns:svg="http://www.w3.org/2000/svg">
  <defs
     id="defs380" />
  <sodipodi:namedview
     id="namedview378"
     pagecolor="#ffffff"
     bordercolor="#666666"
     borderopacity="1.0"
     inkscape:pageshadow="2"
     inkscape:pageopacity="0.0"
     inkscape:pagecheckerboard="0"
     showgrid="false"
     inkscape:zoom="0.719"
     inkscape:cx="500"
     inkscape:cy="723.2267"
     inkscape:window-width="1920"
     inkscape:window-height="947"
     inkscape:window-x="0"
     inkscape:window-y="32"
     inkscape:window-maximized="1"
     inkscape:current-layer="g374" />
  <title
     id="title2">106-italy</title>
  <g
     style="isolation:isolate"
     id="g374">
    <rect
       width="1000"
       height="1000"
       style="fill:#63ceb2"
       id="rect4" />
    <ellipse
       cx="500"
       cy="769.319"
       rx="206.776"
       ry="48.334"
       style="fill:#9a9c9b;opacity:0.25;mix-blend-mode:multiply"
       id="ellipse122" />
    <path
       d="M418.689,736.007s-15.364,6.521-22.33,14.115c-9.876,10.766-4.839,26.133,18.613,28.449,28.453,2.81,43-17.715,43.531-25.236.657-9.28.371-13.772-3.521-17.546C421.327,731.721,418.689,736.007,418.689,736.007Z"
       style="fill:#39294e"
       id="path124"
       transform="translate(0 0)" />
    <path
       d="M418.689,736.007s-15.364,6.521-22.33,14.115c-9.876,10.766-4.839,26.133,18.613,28.449,28.453,2.81,43-17.715,43.531-25.236.657-9.28.371-13.772-3.521-17.546C421.327,731.721,418.689,736.007,418.689,736.007Z"
       style="fill:none;stroke:#39294e;stroke-linecap:round;stroke-linejoin:round;stroke-width:2.8038410403908927px"
       id="path126"
       transform="translate(0 0)" />
    <path
       d="M424.047,686.236s3.66,37.939.519,46.784c-.529,1.489-9.733,3.452-10.78,9.06-.924,4.946,2.455,10.42,9.915,12.851,11.789,3.84,25.058.233,29.751-9.77,4.3-9.165-4.484-30.185,7.662-59.625C427.189,685.536,424.047,686.236,424.047,686.236Z"
       style="fill:#ffab91"
       id="path128"
       transform="translate(0 0)" />
    <path
       d="M421.5,745.657c1.047-5.608,10.251-7.571,10.78-9.06,3.141-8.845-.519-46.784-.519-46.784s2.566-.57,27.967-.682c.433-1.186.886-2.381,1.387-3.6-33.925,0-37.066.7-37.066.7s3.659,37.939.518,46.784c-.529,1.489-9.733,3.452-10.78,9.06-.923,4.946,2.455,10.42,9.915,12.851.658.214,1.322.4,1.988.565C422.283,752.752,420.86,749.078,421.5,745.657Z"
       style="fill:#e88b74"
       id="path130"
       transform="translate(0 0)" />
    <path
       d="M424.047,686.236s3.66,37.939.519,46.784c-.529,1.489-9.733,3.452-10.78,9.06-.924,4.946,2.455,10.42,9.915,12.851,11.789,3.84,25.058.233,29.751-9.77,4.3-9.165-4.484-30.185,7.662-59.625C427.189,685.536,424.047,686.236,424.047,686.236Z"
       style="fill:none;stroke:#39294e;stroke-linecap:round;stroke-linejoin:round;stroke-width:2.8038410403908927px"
       id="path132"
       transform="translate(0 0)" />
    <path
       d="M415.362,679.66s2.042,11.805,2.042,15.088,18.37,6.14,26.942,6.14,14.288,3.265,17.554,0,5.452-22.453,5.452-24.494S415.362,679.66,415.362,679.66Z"
       style="fill:#c65258"
       id="path134"
       transform="translate(0 0)" />
    <path
       d="M431.978,685.275s19.644-2,34.783-3.076c.383-2.917.591-5.176.591-5.8,0-2.041-51.99,3.266-51.99,3.266s2.042,11.805,2.042,15.088c0,2.23,8.48,4.263,16.607,5.338C433.916,696.49,431.978,685.275,431.978,685.275Z"
       style="fill:#c65258;opacity:0.21;mix-blend-mode:multiply"
       id="path136"
       transform="translate(0 0)" />
    <path
       d="M415.362,679.66s2.042,11.805,2.042,15.088,18.37,6.14,26.942,6.14,14.288,3.265,17.554,0,5.452-22.453,5.452-24.494S415.362,679.66,415.362,679.66Z"
       style="fill:none;stroke:#39294e;stroke-linecap:round;stroke-linejoin:round;stroke-width:2.8038410403908927px"
       id="path138"
       transform="translate(0 0)" />
    <path
       d="M427.219,769.748a5.756,5.756,0,0,0,1.128-.4"
       style="fill:none;stroke:#fff;stroke-linecap:round;stroke-linejoin:round;stroke-width:2.8038410403908927px;opacity:0.6000000000000001"
       id="path140"
       transform="translate(0 0)" />
    <path
       d="M410.155,768.256s3.683,3.752,12.766,2.378"
       style="fill:none;stroke:#fff;stroke-linecap:round;stroke-linejoin:round;stroke-width:2.8038410403908927px;opacity:0.6000000000000001"
       id="path142"
       transform="translate(0 0)" />
    <path
       d="M590.353,749.14c9.876,10.766,12.107,26.193-11.346,28.509-28.452,2.81-45.2-14.632-45.736-22.153-.658-9.279-.148-16.228,3.745-20C570.671,731.426,583.386,741.546,590.353,749.14Z"
       style="fill:#39294e"
       id="path144"
       transform="translate(0 0)" />
    <path
       d="M590.353,749.14c9.876,10.766,12.107,26.193-11.346,28.509-28.452,2.81-45.2-14.632-45.736-22.153-.658-9.279-.148-16.228,3.745-20C570.671,731.426,583.386,741.546,590.353,749.14Z"
       style="fill:none;stroke:#39294e;stroke-linecap:round;stroke-linejoin:round;stroke-width:2.8038410403908927px"
       id="path146"
       transform="translate(0 0)" />
    <path
       d="M565.431,686.236s-3.66,37.939-.519,46.784c.529,1.489,13.361,11.641,3.259,19.474-3.976,3.083-24.694,2.67-29.388-7.333-4.3-9.165,1.727-30.185-10.419-59.625C562.289,685.536,565.431,686.236,565.431,686.236Z"
       style="fill:#ffab91"
       id="path148"
       transform="translate(0 0)" />
    <path
       d="M546.542,745.816c-4.3-9.165,1.727-30.185-10.419-59.626,14.958,0,23.926.137,29.285.289.013-.143.023-.243.023-.243s-3.142-.7-37.067-.7c12.146,29.441,6.12,50.461,10.419,59.626,3.191,6.8,13.783,9.165,21.491,9.016C554.426,753.069,548.735,750.49,546.542,745.816Z"
       style="fill:#e88b74"
       id="path150"
       transform="translate(0 0)" />
    <path
       d="M565.431,686.236s-3.66,37.939-.519,46.784c.529,1.489,15.112,14.688,3.259,19.474-7.436,3-24.694,2.67-29.388-7.333-4.3-9.165,1.727-30.185-10.419-59.625C562.289,685.536,565.431,686.236,565.431,686.236Z"
       style="fill:none;stroke:#39294e;stroke-linecap:round;stroke-linejoin:round;stroke-width:2.8038410403908927px"
       id="path152"
       transform="translate(0 0)" />
    <path
       d="M574.116,682.464s-2.041,11.8-2.041,15.088-15.6,6.049-23.954,7.97c-6.315,1.451-17.277,1.435-20.543-1.83s-5.452-22.453-5.452-24.494S574.116,682.464,574.116,682.464Z"
       style="fill:#c65258"
       id="path154"
       transform="translate(0 0)" />
    <path
       d="M538.482,703.691c-3.266-3.265-5.452-22.452-5.452-24.493,0-.077.1-.141.241-.2-6.5-.363-11.145-.411-11.145.2,0,2.041,2.186,21.228,5.452,24.493,2.745,2.745,10.917,3.189,17.206,2.4C542.032,705.689,539.711,704.921,538.482,703.691Z"
       style="fill:#c65258;opacity:0.21;mix-blend-mode:multiply"
       id="path156"
       transform="translate(0 0)" />
    <path
       d="M574.116,682.464s-2.041,11.8-2.041,15.088-15.6,6.049-23.954,7.97c-6.315,1.451-17.277,1.435-20.543-1.83s-5.452-22.453-5.452-24.494S574.116,682.464,574.116,682.464Z"
       style="fill:none;stroke:#39294e;stroke-linecap:round;stroke-linejoin:round;stroke-width:2.8038410403908927px"
       id="path158"
       transform="translate(0 0)" />
    <path
       d="M569.888,770.839c3.115.175,7.833.473,11.236-1.785"
       style="fill:none;stroke:#fff;stroke-linecap:round;stroke-linejoin:round;stroke-width:2.8038410403908927px;opacity:0.6000000000000001"
       id="path160"
       transform="translate(0 0)" />
    <path
       d="M563.677,769.748s.157,0,1.547.287"
       style="fill:none;stroke:#fff;stroke-linecap:round;stroke-linejoin:round;stroke-width:2.8038410403908927px;opacity:0.6000000000000001"
       id="path162"
       transform="translate(0 0)" />
    <path
       d="M521.107,394.454H486.432s2.82-15.876,3.149-20.883c.519-7.878-.548-29.235-.548-29.235h29.472s-1.067,21.357-.548,29.235C518.287,378.578,521.107,394.454,521.107,394.454Z"
       style="fill:#ffab91"
       id="path164"
       transform="translate(0 0)" />
    <path
       d="M489.033,344.336s.232,4.629.426,10.371a32.769,32.769,0,0,0,28.654-.979h0c.187-5.28.392-9.392.392-9.392Z"
       style="fill:#e88b74"
       id="path166"
       transform="translate(0 0)" />
    <path
       d="M521.107,394.454H486.432s2.82-15.876,3.149-20.883c.519-7.878-.548-29.235-.548-29.235h29.472s-1.067,21.357-.548,29.235C518.287,378.578,521.107,394.454,521.107,394.454Z"
       style="fill:none;stroke:#39294e;stroke-linejoin:round;stroke-width:2.8038410403908927px"
       id="path168"
       transform="translate(0 0)" />
    <path
       d="M518.441,372.387c-1.665,6.663-6.611,13.016-15.123,13.016S489.86,379.05,488.2,372.387l-22.863,1.4,4.334,148.24h66.745l4.333-148.24Z"
       style="fill:#fff"
       id="path170"
       transform="translate(0 0)" />
    <path
       d="M488.2,378.63c1.548,2.151,6.611,6.773,15.123,6.773s13.175-2.411,15.123-6.773l22.121,1.391.182-6.232-22.3-1.4c-1.665,6.663-6.611,13.016-15.123,13.016S489.86,379.05,488.2,372.387l-22.863,1.4.182,6.232Z"
       style="fill:#efefef"
       id="path172"
       transform="translate(0 0)" />
    <path
       d="M518.441,372.387c-1.665,6.663-6.611,13.016-15.123,13.016S489.86,379.05,488.2,372.387l-22.863,1.4,4.334,148.24h66.745l4.333-148.24Z"
       style="fill:none;stroke:#39294e;stroke-linejoin:round;stroke-width:2.8038410403908927px"
       id="path174"
       transform="translate(0 0)" />
    <path
       d="M556.908,522.029s2.746,27.577,29.382,85.055c18.213,39.3.5,78.554-26.971,85.405-22.908,5.715-44.2,1.658-50.8-24.675-5.821-23.248,4.174-55.361.585-71.417-6.649,1.508-9.571,1.464-14.439,0-12.58,28.206-2.985,59.428-15.618,76.339-11.94,15.982-42.992,23.207-66.215,8.035-23.97-15.661-19.769-46.121,2.012-80.234,18.494-28.965,33.216-63.605,35.983-83.006C457.971,517.531,556.908,522.029,556.908,522.029Z"
       style="fill:#5f2e50"
       id="path176"
       transform="translate(0 0)" />
    <g
       style="opacity:0.22;mix-blend-mode:overlay"
       id="g182">
      <path
         d="M430.216,676.586c-23.971-15.661-19.77-46.121,2.012-80.234,17.067-26.73,30.914-58.283,35.124-78.243-8.689-.352-14.921-.578-16.523-.578-2.767,19.4-17.489,54.041-35.983,83.006-21.781,34.113-25.982,64.573-2.012,80.234,15.931,10.408,35.545,10.274,50.148,4A52.685,52.685,0,0,1,430.216,676.586Z"
         style="fill:#5f2e50"
         id="path178"
         transform="translate(0 0)" />
      <path
         d="M525.9,663.629c-7.987-21.868-1.89-64.266-10.549-70.365-6.648,1.508-5.105,3.331-5.834,5.542,2.251,16.693-6.543,46.866-1,69.008,6.594,26.333,27.89,30.39,50.8,24.675a36.347,36.347,0,0,0,6.271-2.22C547.188,692.076,533.684,684.935,525.9,663.629Z"
         style="fill:#5f2e50"
         id="path180"
         transform="translate(0 0)" />
    </g>
    <path
       d="M538.134,463.065s1.834,64.765-20.782,100.4c-18.911,29.8-57.156,35.269-68.009,35.586a56.063,56.063,0,0,1-25.576-5.787l8.211-39.376Z"
       style="fill:#5a2849"
       id="path184"
       transform="translate(0 0)" />
    <path
       d="M556.908,522.029s2.746,27.577,29.382,85.055c18.213,39.3.5,78.554-26.971,85.405-22.908,5.715-44.2,1.658-50.8-24.675-5.821-23.248,4.174-55.361.585-71.417a36.692,36.692,0,0,1-14.439,0c-12.58,28.206-2.985,59.428-15.618,76.339-11.94,15.982-42.992,23.207-66.215,8.035-23.97-15.661-19.769-46.121,2.012-80.234,18.494-28.965,33.216-63.605,35.983-83.006C457.971,517.531,556.908,522.029,556.908,522.029Z"
       style="fill:none;stroke:#39294e;stroke-linecap:round;stroke-linejoin:round;stroke-width:2.8038410403908927px"
       id="path186"
       transform="translate(0 0)" />
    <path
       d="M503.769,284.637c38.887,0,77.491-6.639,82.761-33.646,3.738-19.16-2.727-49.214-10-62.014l-5.173-9.2-67.584-.745-67.589,4.2s-29.776,29.894-14.142,63.9C433.53,272.137,464.882,284.637,503.769,284.637Z"
       style="fill:#39294e;stroke:#39294e;stroke-linejoin:round;stroke-width:2.8038410403908927px"
       id="path188"
       transform="translate(0 0)" />
    <path
       d="M432.818,276.693c-9.456,9.456-24.512-4.448-22.7-23.147.944-9.761,12.54-17.812,23.639-5.476C433.753,248.07,439.1,270.415,432.818,276.693Z"
       style="fill:#ffab91"
       id="path190"
       transform="translate(0 0)" />
    <path
       d="M433.289,256.282a89.226,89.226,0,0,1,2.071,14.823c1.758-8.946-1.607-23.035-1.607-23.035-11.1-12.336-22.695-4.285-23.639,5.476a31.536,31.536,0,0,0-.015,5.852C412.5,250.813,423.1,244.959,433.289,256.282Z"
       style="fill:#e88b74"
       id="path192"
       transform="translate(0 0)" />
    <path
       d="M432.818,276.693c-9.456,9.456-24.512-4.448-22.7-23.147.944-9.761,12.54-17.812,23.639-5.476C433.753,248.07,439.1,270.415,432.818,276.693Z"
       style="fill:none;stroke:#39294e;stroke-linejoin:round;stroke-width:2.8038410403908927px"
       id="path194"
       transform="translate(0 0)" />
    <path
       d="M426.413,262.529a15.935,15.935,0,0,0-1.323-2.959A11.081,11.081,0,0,0,423.141,257a6.5,6.5,0,0,0-2.631-1.577,6.193,6.193,0,0,0-3.12.093l-.065.015a.6.6,0,0,1-.351-1.145,7.589,7.589,0,0,1,3.854-.534,8.264,8.264,0,0,1,3.607,1.618,13.238,13.238,0,0,1,2.664,2.778,18.4,18.4,0,0,1,1.947,3.315,1.406,1.406,0,0,1-2.563,1.155c-.022-.05-.041-.1-.058-.151Z"
       style="fill:#39294e"
       id="path196"
       transform="translate(0 0)" />
    <path
       d="M574.72,276.693c9.456,9.456,24.513-4.448,22.7-23.147-.944-9.761-12.54-17.812-23.639-5.476C573.785,248.07,568.442,270.415,574.72,276.693Z"
       style="fill:#ffab91"
       id="path198"
       transform="translate(0 0)" />
    <path
       d="M573.785,253.978c11.1-12.336,22.7-4.286,23.639,5.476,0,.019,0,.039,0,.058a31.456,31.456,0,0,0,0-5.966c-.944-9.761-12.54-17.812-23.639-5.476,0,0-2.636,11.043-2.023,19.784A90.581,90.581,0,0,1,573.785,253.978Z"
       style="fill:#e88b74"
       id="path200"
       transform="translate(0 0)" />
    <path
       d="M574.72,276.693c9.456,9.456,24.513-4.448,22.7-23.147-.944-9.761-12.54-17.812-23.639-5.476C573.785,248.07,568.442,270.415,574.72,276.693Z"
       style="fill:none;stroke:#39294e;stroke-linejoin:round;stroke-width:2.8038410403908927px"
       id="path202"
       transform="translate(0 0)" />
    <path
       d="M578.482,261.6a15.668,15.668,0,0,1,1.806-3.075,13.481,13.481,0,0,1,2.447-2.544,9.088,9.088,0,0,1,3.2-1.581,8.151,8.151,0,0,1,3.5-.047.484.484,0,0,1-.086.961h-.056a6.955,6.955,0,0,0-2.921.449,7.459,7.459,0,0,0-2.384,1.636,11.384,11.384,0,0,0-1.725,2.4,13.347,13.347,0,0,0-1.12,2.7l-.008.027a1.406,1.406,0,1,1-2.715-.736A1.55,1.55,0,0,1,578.482,261.6Z"
       style="fill:#39294e"
       id="path204"
       transform="translate(0 0)" />
    <path
       d="M576.537,241.411a213.073,213.073,0,0,0-16.453-43.459l-56.315-.689-56.315.689A213.205,213.205,0,0,0,431,241.411c-6.736,25.819-3.807,65.814,20.544,89.022,15.86,15.116,42.35,19.055,52.224,19.055s36.365-3.939,52.225-19.055C580.345,307.225,583.273,267.23,576.537,241.411Z"
       style="fill:#ffab91"
       id="path206"
       transform="translate(0 0)" />
    <path
       d="M555.994,325.281c-15.86,15.116-42.351,19.055-52.225,19.055s-36.364-3.939-52.224-19.055c-16.494-15.72-23.15-39.137-23.642-60.638-.518,22.831,5.82,48.8,23.642,65.79,15.86,15.116,42.35,19.055,52.224,19.055s36.365-3.939,52.225-19.055c17.822-16.986,24.16-42.959,23.641-65.79C579.144,286.144,572.487,309.561,555.994,325.281Z"
       style="fill:#e88b74"
       id="path208"
       transform="translate(0 0)" />
    <path
       d="M431.69,238.841l15.764-40.889-1.5-2.8,16.356,3.271s25.7-6.309,26.636-6.309h26.577c2.422,0,38.379,3.038,39.08,3.739s14.822,22.61,14.822,22.61,4.644,10.256,5.938,18.64c-47.726,11.548-86.834-26.036-86.834-26.036s-23.794-1.014-37.728-4.445c-4.279,6.821-19.112,32.223-19.112,32.223"
       style="fill:#e88b74"
       id="path210"
       transform="translate(0 0)" />
    <path
       d="M576.537,241.411a213.073,213.073,0,0,0-16.453-43.459l-56.315-.689-56.315.689A213.205,213.205,0,0,0,431,241.411c-6.736,25.819-3.807,65.814,20.544,89.022,15.86,15.116,42.35,19.055,52.224,19.055s36.365-3.939,52.225-19.055C580.345,307.225,583.273,267.23,576.537,241.411Z"
       style="fill:none;stroke:#39294e;stroke-linejoin:round;stroke-width:2.8038410403908927px"
       id="path212"
       transform="translate(0 0)" />
    <path
       d="M512.839,272.067a4.167,4.167,0,0,0-1.677-1.023,13.223,13.223,0,0,0-2.062-.587,22.138,22.138,0,0,0-8.629,0,13.223,13.223,0,0,0-2.062.587,4.174,4.174,0,0,0-1.679,1.021l-.053.063a.378.378,0,0,1-.648-.359,3.993,3.993,0,0,1,1.719-1.981,9.965,9.965,0,0,1,2.234-1.071,15.044,15.044,0,0,1,9.607,0,10.026,10.026,0,0,1,2.234,1.07,3.991,3.991,0,0,1,1.72,1.981.379.379,0,0,1-.651.36Z"
       style="fill:#39294e"
       id="path214"
       transform="translate(0 0)" />
    <path
       d="M474.163,284.137a27.227,27.227,0,0,0,6.508,4.564,39.041,39.041,0,0,0,7.45,2.938,59.766,59.766,0,0,0,31.823-.026,38.907,38.907,0,0,0,7.438-2.946,27.21,27.21,0,0,0,6.491-4.563l.013-.013a.789.789,0,0,1,1.147,1.08,26.625,26.625,0,0,1-6.586,5.409,40.693,40.693,0,0,1-7.752,3.453,55.331,55.331,0,0,1-33.309-.026,40.636,40.636,0,0,1-7.741-3.461,26.6,26.6,0,0,1-6.568-5.409.739.739,0,0,1,1.071-1.014Z"
       style="fill:#39294e"
       id="path216"
       transform="translate(0 0)" />
    <circle
       cx="476.426"
       cy="238.841"
       r="7.01"
       style="fill:#39294e"
       id="circle218" />
    <path
       d="M459.719,231.426a15.307,15.307,0,0,1,3.721-5.495,18.983,18.983,0,0,1,5.61-3.715,23.448,23.448,0,0,1,6.414-1.747,20.267,20.267,0,0,1,6.62.177,1.468,1.468,0,0,1-.083,2.891l-.137.019c-1.863.267-3.856.577-5.727.973a41.2,41.2,0,0,0-5.5,1.578,26.228,26.228,0,0,0-5.065,2.491,31.1,31.1,0,0,0-4.566,3.65l-.063.055a.773.773,0,0,1-1.226-.877Z"
       style="fill:#39294e"
       id="path220"
       transform="translate(0 0)" />
    <circle
       cx="534.255"
       cy="238.841"
       r="7.01"
       style="fill:#39294e"
       id="circle222" />
    <line
       x1="549.501"
       y1="229.729"
       x2="530.926"
       y2="223.069"
       style="fill:none;stroke:#39294e;stroke-linecap:round;stroke-linejoin:round;stroke-width:4.205761560586339px"
       id="line224" />
    <path
       d="M496.935,192.11s-16.644,7.561,5.424,19.627c15.651,8.558,59.369,30.524,77.314,22.112s6.857-24.448,3.585-27.719C579.053,210.335,506.345,201.521,496.935,192.11Z"
       style="fill:#c65258"
       id="path226"
       transform="translate(0 0)" />
    <path
       d="M576.394,225.8c7.544-3.536,10.63-8.24,11.339-12.974a25.452,25.452,0,0,0-4.475-6.7c-4.205,4.205-76.913-4.609-86.323-14.02,0,0-3.961,8.585-.555,15.284C538.423,229.729,557.22,234.791,576.394,225.8Z"
       style="fill:#c65258;opacity:0.22;mix-blend-mode:multiply"
       id="path228"
       transform="translate(0 0)" />
    <path
       d="M496.935,192.11s-16.644,7.561,5.424,19.627c15.651,8.558,59.369,30.524,77.314,22.112s6.857-24.448,3.585-27.719C579.053,210.335,506.345,201.521,496.935,192.11Z"
       style="fill:none;stroke:#39294e;stroke-linejoin:round;stroke-width:2.8038410403908927px"
       id="path230"
       transform="translate(0 0)" />
    <path
       d="M582.818,215.943c-13.489,7.126-38.25-2.57-67.177-7.477s-86.782-5.608-98.21-23.832,4.517-58.374,47.855-53.974c41.427,4.205,77.324,19.86,117.532,44.16C600.648,185.6,595.154,209.426,582.818,215.943Z"
       style="fill:#814f5a"
       id="path232"
       transform="translate(0 0)" />
    <path
       d="M583.844,200.2c-13.191,6.969-37.405-2.513-65.694-7.312s-84.865-5.483-96.041-23.306c-2.912-4.644-3.989-10.748-3.265-17.154-6.126,11.1-6.61,23.92-1.413,32.207,11.428,18.225,69.283,18.926,98.21,23.833s53.688,14.6,67.177,7.477c8.312-4.391,13.5-16.64,10.562-27.461C591.494,193.619,588.086,197.957,583.844,200.2Z"
       style="fill:#814f5a;opacity:0.13;mix-blend-mode:multiply"
       id="path234"
       transform="translate(0 0)" />
    <path
       d="M582.818,215.943c-13.489,7.126-38.25-2.57-67.177-7.477s-86.782-5.608-98.21-23.832,4.517-58.374,47.855-53.974c41.427,4.205,77.324,19.86,117.532,44.16C600.648,185.6,595.154,209.426,582.818,215.943Z"
       style="fill:none;stroke:#39294e;stroke-linejoin:round;stroke-width:2.8038410403908927px"
       id="path236"
       transform="translate(0 0)" />
    <path
       d="M467.982,371.661c7.909,3.527,18.777,36.649,25.316,66.875,8.694,40.185,11.431,103.89-4.884,107.409-21.4,4.617-50.375-8.482-50.375-14s15.8-49.307,12.091-89.209c-3.506-37.752-12.091-57.962-12.091-61.188S462.029,369.006,467.982,371.661Z"
       style="fill:#ee406d"
       id="path238"
       transform="translate(0 0)" />
    <path
       d="M451.8,446.743c-3.506-37.752-12.091-57.962-12.091-61.187s23.99-12.538,29.944-9.883c2.9,1.292,6.191,6.566,9.524,14.2-3.893-9.784-7.813-16.708-11.194-18.215-5.954-2.656-29.943,6.657-29.943,9.882s8.585,23.436,12.091,61.188c3.7,39.9-12.091,83.686-12.091,89.209,0,.817.647,1.8,1.8,2.867C441.261,526,455.318,484.635,451.8,446.743Z"
       style="fill:#ee406d;opacity:0.30000000000000004;mix-blend-mode:multiply"
       id="path240"
       transform="translate(0 0)" />
    <path
       d="M456.988,443.344a309.3,309.3,0,0,0-18.6-62.563,1.332,1.332,0,0,0-.349.762c0,3.226,8.585,23.436,12.091,61.188,3.7,39.9-12.091,83.686-12.091,89.209,0,2.554,6.2,6.726,14.978,10.019C452.705,535.137,465.1,486.18,456.988,443.344Z"
       style="fill:#ee406d;opacity:0.30000000000000004;mix-blend-mode:multiply"
       id="path242"
       transform="translate(0 0)" />
    <path
       d="M467.982,371.661c7.909,3.527,18.777,36.649,25.316,66.875,8.694,40.185,11.431,103.89-4.884,107.409-21.4,4.617-50.375-8.482-50.375-14s15.8-49.307,12.091-89.209c-3.506-37.752-12.091-57.962-12.091-61.188S462.029,369.006,467.982,371.661Z"
       style="fill:none;stroke:#39294e;stroke-linejoin:round;stroke-width:2.8038410403908927px"
       id="path244"
       transform="translate(0 0)" />
    <path
       d="M539.3,372.5c-7.908,3.527-18.776,36.649-25.315,66.875-8.694,40.185-11.431,103.89,4.884,107.41,21.4,4.616,50.375-8.482,50.375-14s-15.8-49.307-12.091-89.21c3.506-37.752,12.091-57.962,12.091-61.187S545.251,369.843,539.3,372.5Z"
       style="fill:#ee406d"
       id="path246"
       transform="translate(0 0)" />
    <path
       d="M557.15,443.568c3.506-37.752,12.091-57.962,12.091-61.187s-23.99-12.538-29.944-9.883a6.6,6.6,0,0,0-1.644,1.123c9.8,1.267,25.9,8.075,25.9,10.8,0,3.431-9.131,24.927-12.86,65.082-3.343,35.994,8.23,74.946,11.824,89.537,4.155-2.314,6.724-4.623,6.724-6.263C569.241,527.255,553.445,483.47,557.15,443.568Z"
       style="fill:#ee406d;opacity:0.30000000000000004;mix-blend-mode:multiply"
       id="path248"
       transform="translate(0 0)" />
    <path
       d="M539.3,372.5c-7.908,3.527-18.776,36.649-25.315,66.875-8.694,40.185-11.431,103.89,4.884,107.41,21.4,4.616,50.375-8.482,50.375-14s-15.8-49.307-12.091-89.21c3.506-37.752,12.091-57.962,12.091-61.187S545.251,369.843,539.3,372.5Z"
       style="fill:none;stroke:#39294e;stroke-linejoin:round;stroke-width:2.8038410403908927px"
       id="path250"
       transform="translate(0 0)" />
    <path
       d="M562.817,467.065c5.336,8.332,16.576,18.723,30.9,10.49,11.777-6.771,16.82-21.91,20.721-36.707,6.673-25.312-7.947-28.159-7.947-28.159S593.68,418.137,591.915,420s-3.532,1.125-6.727,9-2.524,19.834-2.524,19.834-2.457-26.774-2.839-33.517c-1.182-20.89-11.135-33.147-13.264-30.9S542.562,435.443,562.817,467.065Z"
       style="fill:#fff"
       id="path252"
       transform="translate(0 0)" />
    <path
       d="M579.652,413a56.827,56.827,0,0,0-6.475-22.475,67.94,67.94,0,0,1,1.083,8.86c.381,6.743,2.838,33.518,2.838,33.518s-.67-11.959,2.525-19.835Z"
       style="fill:#efefef"
       id="path254"
       transform="translate(0 0)" />
    <path
       d="M610.563,414.77a50.109,50.109,0,0,1-1.695,10.146c-3.9,14.8-8.943,29.936-20.72,36.707-14.321,8.234-25.56-2.158-30.9-10.49-.614-.958-1.186-1.934-1.724-2.922a53.1,53.1,0,0,0,7.29,18.854c5.336,8.332,16.576,18.723,30.9,10.49,11.776-6.771,16.819-21.91,20.72-36.707C618.68,424.744,614.307,417.74,610.563,414.77Z"
       style="fill:#efefef"
       id="path256"
       transform="translate(0 0)" />
    <path
       d="M562.817,467.065c5.336,8.332,16.576,18.723,30.9,10.49,11.777-6.771,16.82-21.91,20.721-36.707,6.673-25.312-7.947-28.159-7.947-28.159S593.68,418.137,591.915,420s-3.532,1.125-6.727,9-2.524,19.834-2.524,19.834-2.457-26.774-2.839-33.517c-1.182-20.89-11.135-33.147-13.264-30.9S542.562,435.443,562.817,467.065Z"
       style="fill:none;stroke:#39294e;stroke-linejoin:round;stroke-width:2.8038410403908927px"
       id="path258"
       transform="translate(0 0)" />
    <path
       d="M492.3,595.017s9.831,5.26,23.059-1.753"
       style="fill:none;stroke:#39294e;stroke-linecap:round;stroke-linejoin:round;stroke-width:2.8038410403908927px"
       id="path260"
       transform="translate(0 0)" />
    <path
       d="M401.863,558.739c-4.684-6.778-16.673-28.545-10.945-51.2,8.6-34.03,50.869-61.6,84.273-61.38,28.829.187,28.829.187,71.712,12.339-3.791,44.409-3.791,44.409-13.806,71.443-11.606,31.324-52.332,61.118-87.2,57.137C422.671,584.424,406.547,565.516,401.863,558.739Z"
       style="fill:#fbad62"
       id="path262"
       transform="translate(0 0)" />
    <path
       d="M392.6,489.2s3.535,19.634,12.234,28.333c4.813,4.812,8.307,6.761,10.468,7.541a2.39,2.39,0,0,0,3.116-1.77l1.257-5.771s16.719,1.554,24.684,0c4.966,4.965,13.641,7.055,22.99,4.772,8.426-2.058,32.9-16.868,32.9-20.237s-62.365-5.272-62.365-5.272Z"
       style="fill:#fbad62;opacity:0.4;mix-blend-mode:multiply"
       id="path264"
       transform="translate(0 0)" />
    <path
       d="M534.091,515.209c-11.606,31.324-52.331,61.119-87.2,57.137-23.221-2.65-39.345-21.559-44.029-28.336-3.528-5.105-11.2-18.715-12.321-34.8-4.752,22.05,6.758,42.922,11.327,49.533,4.684,6.777,20.808,25.685,44.029,28.336,34.873,3.981,75.6-25.813,87.2-57.137C543.113,502.9,543.113,502.9,546.9,458.5l-.272-.077C543.952,488.592,542.86,491.54,534.091,515.209Z"
       style="fill:#fbad62;opacity:0.4;mix-blend-mode:multiply"
       id="path266"
       transform="translate(0 0)" />
    <path
       d="M401.863,558.739c-4.684-6.778-16.673-28.545-10.945-51.2,8.6-34.03,50.869-61.6,84.273-61.38,28.829.187,28.829.187,71.712,12.339-3.791,44.409-3.791,44.409-13.806,71.443-11.606,31.324-52.332,61.118-87.2,57.137C422.671,584.424,406.547,565.516,401.863,558.739Z"
       style="fill:none;stroke:#39294e;stroke-linecap:round;stroke-linejoin:round;stroke-width:2.8038410403908927px"
       id="path268"
       transform="translate(0 0)" />
    <polygon
       points="509.348 500.987 493.879 478.606 640.327 380.709 652.69 398.597 509.348 500.987"
       style="fill:#b55957"
       id="polygon270" />
    <polygon
       points="648.228 392.14 507.728 492.5 496.783 476.664 493.879 478.606 509.348 500.987 652.69 398.597 648.228 392.14"
       style="fill:#b55957;opacity:0.30000000000000004;mix-blend-mode:multiply"
       id="polygon272" />
    <polygon
       points="509.348 500.987 493.879 478.606 640.327 380.709 652.69 398.597 509.348 500.987"
       style="fill:none;stroke:#39294e;stroke-linecap:round;stroke-linejoin:round;stroke-width:2.8038410403908927px"
       id="polygon274" />
    <path
       d="M448.417,551.605a107.655,107.655,0,0,1-23.482-34.024c-.337-.948,1.546-2.249,2.313-1.6a107.632,107.632,0,0,1,23.527,33.994C451.181,551.1,449.327,552.382,448.417,551.605Z"
       style="fill:#39294e"
       id="path276"
       transform="translate(0 0)" />
    <ellipse
       cx="491.678"
       cy="496.663"
       rx="17.503"
       ry="25.469"
       transform="translate(-195.18 367.639) rotate(-34.65)"
       style="fill:#5f2e50"
       id="ellipse278" />
    <path
       d="M506.776,507.169c-7.952,5.5-19.719,2.254-28.879-11a35.954,35.954,0,0,1-6.027-13.575c-2.33,6.27-.907,14.883,5.409,24.022,9.161,13.254,20.927,16.5,28.879,11,5.1-3.524,7.372-9.793,5.945-17.327A14.316,14.316,0,0,1,506.776,507.169Z"
       style="fill:#39294e"
       id="path280"
       transform="translate(0 0)" />
    <ellipse
       cx="491.678"
       cy="496.663"
       rx="17.503"
       ry="25.469"
       transform="translate(-195.18 367.639) rotate(-34.65)"
       style="fill:none;stroke:#39294e;stroke-linecap:round;stroke-linejoin:round;stroke-width:2.8038410403908927px"
       id="ellipse282" />
    <line
       x1="651.105"
       y1="354.759"
       x2="654.858"
       y2="361.195"
       style="fill:none;stroke:#39294e;stroke-linecap:round;stroke-linejoin:round;stroke-width:4.205761560586339px"
       id="line284" />
    <rect
       x="647.747"
       y="348.304"
       width="5.513"
       height="10.849"
       rx="1.966"
       transform="translate(628.387 -386.4) rotate(59.752)"
       style="fill:#39294e"
       id="rect286" />
    <line
       x1="633.602"
       y1="361.613"
       x2="638.806"
       y2="370.621"
       style="fill:none;stroke:#39294e;stroke-linecap:round;stroke-linejoin:round;stroke-width:4.205761560586339px"
       id="line288" />
    <rect
       x="630.245"
       y="355.158"
       width="5.513"
       height="10.849"
       rx="1.966"
       transform="translate(625.623 -367.879) rotate(59.752)"
       style="fill:#39294e"
       id="rect290" />
    <line
       x1="680.774"
       y1="397.687"
       x2="676.08"
       y2="391.901"
       style="fill:none;stroke:#39294e;stroke-linecap:round;stroke-linejoin:round;stroke-width:4.205761560586339px"
       id="line292" />
    <rect
       x="678.77"
       y="393.189"
       width="5.513"
       height="10.849"
       rx="1.966"
       transform="translate(801.357 1179.005) rotate(-129.052)"
       style="fill:#39294e"
       id="rect294" />
    <line
       x1="668.176"
       y1="411.637"
       x2="661.589"
       y2="403.585"
       style="fill:none;stroke:#39294e;stroke-linecap:round;stroke-linejoin:round;stroke-width:4.205761560586339px"
       id="line296" />
    <rect
       x="666.171"
       y="407.139"
       width="5.513"
       height="10.849"
       rx="1.966"
       transform="translate(769.988 1191.961) rotate(-129.052)"
       style="fill:#39294e"
       id="rect298" />
    <path
       d="M689.054,368.821l-8.02-11.6a10.858,10.858,0,0,0-14.29-3.391l-43.1,25.548a7.563,7.563,0,0,0-3.6,4.748L616.608,399.5l10.119,14.641,15.6,2.223a7.565,7.565,0,0,0,5.715-1.691l39.133-31.287A10.857,10.857,0,0,0,689.054,368.821Z"
       style="fill:#fbad62"
       id="path300"
       transform="translate(0 0)" />
    <path
       d="M691.027,372.387l-1.973-3.566c.377,3.122-4.706,6.888-7.568,8.915l-39.134,27.717a8.261,8.261,0,0,1-5.714,1.5l-15.6-1.97-4.024-5.158-.406,1.609L626.727,414.4l15.6,1.969a8.254,8.254,0,0,0,5.715-1.5l37.038-29.812C689.4,382,694.239,376.5,691.027,372.387Z"
       style="fill:#fbad62;opacity:0.4;mix-blend-mode:multiply"
       id="path302"
       transform="translate(0 0)" />
    <path
       d="M689.054,368.821l-8.02-11.6a10.858,10.858,0,0,0-14.29-3.391l-43.1,25.548a7.563,7.563,0,0,0-3.6,4.748L616.608,399.5l10.119,14.641,15.6,2.223a7.565,7.565,0,0,0,5.715-1.691l39.133-31.287A10.857,10.857,0,0,0,689.054,368.821Z"
       style="fill:none;stroke:#39294e;stroke-linecap:round;stroke-linejoin:round;stroke-width:4.205761560586339px"
       id="path304"
       transform="translate(0 0)" />
    <path
       d="M389.561,547.032a45.8,45.8,0,0,0,18.9,27.352,18.773,18.773,0,0,0-18.9-27.352Z"
       style="fill:#b55957"
       id="path306"
       transform="translate(0 0)" />
    <path
       d="M389.561,547.032a45.8,45.8,0,0,0,18.9,27.352,18.773,18.773,0,0,0-18.9-27.352Z"
       style="fill:none;stroke:#39294e;stroke-linecap:round;stroke-linejoin:round;stroke-width:2.8038410403908927px"
       id="path308"
       transform="translate(0 0)" />
    <path
       d="M493.332,496.794c2.732-.974,4.42-4.842,3.3-8.264-1.06-3.242-5.4-2.723-5.4-2.723s4.294-7.353-1.946-10.041c-4.771-2.056-24.1,14.542-27.545,8.634a27.736,27.736,0,0,0,2.537-16.124c-6.307-6.307-16.969,9.828-16.969,22.472-12.159-.085-22.62-4.17-26.643-12.453L408.7,504.129c10.017,5.922,20.556,9.222,37.689,7.034,3.828,7.141,18.942,5.8,28.49,3.364,11.547-2.943,17.623-5.826,20.817-9.709C499.107,500.672,496.837,496.794,493.332,496.794Z"
       style="fill:#ffab91"
       id="path310"
       transform="translate(0 0)" />
    <path
       d="M496.973,491.116a4.694,4.694,0,0,1-1.739,1.148,4.361,4.361,0,0,1,1.52.276A7.477,7.477,0,0,0,496.973,491.116Z"
       style="fill:#e88b74"
       id="path312"
       transform="translate(0 0)" />
    <path
       d="M476.782,510c-9.548,2.434-24.662,3.777-28.49-3.364-17.045,2.177-27.563-1.08-37.534-6.945l-2.057,4.442c10.017,5.922,20.556,9.222,37.689,7.034,3.828,7.141,18.942,5.8,28.49,3.364,11.547-2.943,17.623-5.826,20.817-9.709a6.36,6.36,0,0,0,1.673-4.273C494.12,504.3,488.069,507.119,476.782,510Z"
       style="fill:#e88b74"
       id="path314"
       transform="translate(0 0)" />
    <path
       d="M450.957,476.532a35.631,35.631,0,0,0-3.227,9.644c.491.017.98.037,1.478.041A30.479,30.479,0,0,1,450.957,476.532Z"
       style="fill:#e88b74"
       id="path316"
       transform="translate(0 0)" />
    <path
       d="M493.332,496.794c2.732-.974,4.42-4.842,3.3-8.264-1.06-3.242-5.4-2.723-5.4-2.723s4.294-7.353-1.946-10.041c-4.771-2.056-24.1,14.542-27.545,8.634a27.736,27.736,0,0,0,2.537-16.124c-6.307-6.307-16.969,9.828-16.969,22.472-12.159-.085-22.62-4.17-26.643-12.453L408.7,504.129c10.017,5.922,20.556,9.222,37.689,7.034,3.828,7.141,18.942,5.8,28.49,3.364,11.547-2.943,17.623-5.826,20.817-9.709C499.107,500.672,496.837,496.794,493.332,496.794Z"
       style="fill:none;stroke:#39294e;stroke-linejoin:round;stroke-width:2.8038410403908927px"
       id="path318"
       transform="translate(0 0)" />
    <path
       d="M476.2,492.589c7.514-1.51,15.027-6.782,15.027-6.782"
       style="fill:#ffab91;stroke:#39294e;stroke-linecap:round;stroke-linejoin:round;stroke-width:2.8038410403908927px"
       id="path320"
       transform="translate(0 0)" />
    <path
       d="M478.222,502.066c6.817-.653,15.11-5.272,15.11-5.272"
       style="fill:#ffab91;stroke:#39294e;stroke-linecap:round;stroke-linejoin:round;stroke-width:2.8038410403908927px"
       id="path322"
       transform="translate(0 0)" />
    <path
       d="M427.875,482.282c-1.685-1.522-3.1-1.846-5.637-5.221-18.754-24.933,14.3-53.364,25.672-52.438,8.176-28.67-9.287-40.294-9.287-40.294-37.918,18.39-60.3,51.256-51.893,93.962,3.559,18.083,13.455,30.172,29.814,35.055C417.494,504.231,424.341,491.591,427.875,482.282Z"
       style="fill:#fff"
       id="path324"
       transform="translate(0 0)" />
    <path
       d="M389.678,467.98a83.861,83.861,0,0,1-.13-33.572c-4.774,13.062-5.99,27.771-2.818,43.883,3.559,18.083,13.455,30.172,29.814,35.055a45.317,45.317,0,0,1,2.71-10.391C403.041,498.025,393.22,485.973,389.678,467.98Z"
       style="fill:#efefef"
       id="path326"
       transform="translate(0 0)" />
    <path
       d="M419.678,448.068c6.438-13.734,21.326-24.007,28.232-23.445a56.4,56.4,0,0,0,1.975-10.312C440.829,414.771,421.427,430.194,419.678,448.068Z"
       style="fill:#efefef"
       id="path328"
       transform="translate(0 0)" />
    <path
       d="M419.658,501.854c2.545-6.713,6.02-13.786,8.217-19.572-.356-.321-.7-.585-1.044-.84C423.792,488.367,420.583,495.782,419.658,501.854Z"
       style="fill:#efefef"
       id="path330"
       transform="translate(0 0)" />
    <path
       d="M427.875,482.282c-1.685-1.522-3.1-1.846-5.637-5.221-18.754-24.933,14.3-53.364,25.672-52.438,8.176-28.67-9.287-40.294-9.287-40.294-37.918,18.39-60.3,51.256-51.893,93.962,3.559,18.083,13.455,30.172,29.814,35.055C417.494,504.231,424.341,491.591,427.875,482.282Z"
       style="fill:none;stroke:#39294e;stroke-linejoin:round;stroke-width:2.8038410403908927px"
       id="path332"
       transform="translate(0 0)" />
    <path
       d="M590.856,428.41c4.129,9.782,5.993,11.064,1.832,15.225-1.717,1.716,3.716,4.307,7.44,2.312s5.728-3.977,5.728-7.719c0-1.431-.937-12.521-4.162-15.347C597.191,418.933,587.7,420.923,590.856,428.41Z"
       style="fill:#ffab91"
       id="path334"
       transform="translate(0 0)" />
    <path
       d="M604.84,430.383c-.806.88-.5,2.369-2.978,4.85-2.028,2.028-5.638,2.425-7.176,2.183.76,2.482.312,3.909-2,6.219-1.717,1.716,3.716,4.307,7.44,2.312a14.247,14.247,0,0,0,3.963-2.885,93.264,93.264,0,0,1,1.187-10.285C605.155,432,605.01,431.2,604.84,430.383Z"
       style="fill:#e88b74"
       id="path336"
       transform="translate(0 0)" />
    <path
       d="M605.191,426.174c0,12.072.454,15.814,3.1,15.275s5.066-1.278,6.014-2.709,2.613-3.925,2.3-10.548A49.107,49.107,0,0,0,615.1,417C614.294,413.035,605.191,413.483,605.191,426.174Z"
       style="fill:#ffab91"
       id="path338"
       transform="translate(0 0)" />
    <path
       d="M605.288,433.254c.233,6.478.971,8.609,3.006,8.195,2.65-.538,5.066-1.278,6.014-2.709s2.613-3.925,2.3-10.548c-.016-.34-.032-.654-.049-.964C610.967,436.26,606.087,433.558,605.288,433.254Z"
       style="fill:#e88b74"
       id="path340"
       transform="translate(0 0)" />
    <path
       d="M623.376,410.35c-3.481-.013-6.034,3.231-5.7,11.849.475,12.376,1.5,13.176,4.509,13.018,4.838-.253,6.728-14.321,6.337-17.133C627.344,409.652,626.005,410.36,623.376,410.35Z"
       style="fill:#ffab91"
       id="path342"
       transform="translate(0 0)" />
    <path
       d="M627.737,425.8c-3.267,1.5-7.439,3.333-9.826.946.566,8.014,1.686,8.608,4.27,8.472C624.972,435.071,626.781,430.328,627.737,425.8Z"
       style="fill:#e88b74"
       id="path344"
       transform="translate(0 0)" />
    <path
       d="M590.856,428.41c4.129,9.782,5.993,11.064,1.832,15.225-1.717,1.716,3.716,4.307,7.44,2.312s5.728-3.977,5.728-7.719c0-1.431-.937-12.521-4.162-15.347C597.191,418.933,587.7,420.923,590.856,428.41Z"
       style="fill:none;stroke:#39294e;stroke-linejoin:round;stroke-width:2.8038410403908927px"
       id="path346"
       transform="translate(0 0)" />
    <path
       d="M605.191,426.174c0,12.072.454,15.814,3.1,15.275s5.066-1.278,6.014-2.709,2.613-3.925,2.3-10.548A49.107,49.107,0,0,0,615.1,417C614.294,413.035,605.191,413.483,605.191,426.174Z"
       style="fill:none;stroke:#39294e;stroke-linejoin:round;stroke-width:2.8038410403908927px"
       id="path348"
       transform="translate(0 0)" />
    <path
       d="M623.376,410.35c-3.481-.013-6.034,3.231-5.7,11.849.475,12.376,1.5,13.176,4.509,13.018,4.838-.253,6.728-14.321,6.337-17.133C627.344,409.652,626.005,410.36,623.376,410.35Z"
       style="fill:none;stroke:#39294e;stroke-linejoin:round;stroke-width:2.8038410403908927px"
       id="path350"
       transform="translate(0 0)" />
    <path
       d="M597.308,396.155c-.774,4.6-6.518,13-5.683,17.11,4.634-2.926,11.7-5.576,15.95-12.7,1.808-3.027,1.572-9.545-1.279-11.619C602.61,386.268,597.991,392.094,597.308,396.155Z"
       style="fill:#ffab91;stroke:#39294e;stroke-linejoin:round;stroke-width:2.8038410403908927px"
       id="path352"
       transform="translate(0 0)" />
    <path
       d="M440.028,146.828c-3.984,2.823-8.952,7.972-10.049,14.812"
       style="fill:none;stroke:#fff;stroke-linecap:round;stroke-linejoin:round;stroke-width:2.8038410403908927px;opacity:0.6000000000000001"
       id="path354"
       transform="translate(0 0)" />
    <path
       d="M446.523,143.663a23.343,23.343,0,0,0-2.53,1.067"
       style="fill:none;stroke:#fff;stroke-linecap:round;stroke-linejoin:round;stroke-width:2.8038410403908927px;opacity:0.6000000000000001"
       id="path356"
       transform="translate(0 0)" />
    <path
       d="M490.757,310.819a26.74,26.74,0,0,1,6.535-2.1,36.09,36.09,0,0,1,6.828-.685c1.147-.017,2.3.069,3.439.133,1.14.165,2.287.233,3.408.509a26.313,26.313,0,0,1,6.516,2.137.512.512,0,0,1-.273.973l-.028,0c-2.227-.242-4.371-.589-6.547-.72-2.165-.17-4.33-.266-6.5-.226a105.487,105.487,0,0,0-13.062.945l-.03,0a.514.514,0,0,1-.288-.972Z"
       style="fill:#e88b74"
       id="path358"
       transform="translate(0 0)" />
    <path
       d="M534.559,278.416a6.836,6.836,0,0,1,2.221,1.049,9.01,9.01,0,0,1,1.818,1.655,8.621,8.621,0,0,1,1.307,2.09,7.126,7.126,0,0,1,.621,2.364.259.259,0,0,1-.476.162l-.01-.015c-.421-.667-.769-1.324-1.194-1.935a17.364,17.364,0,0,0-1.321-1.765,25.955,25.955,0,0,0-3.179-3.142l-.018-.016a.259.259,0,0,1,.231-.447Z"
       style="fill:#39294e"
       id="path360"
       transform="translate(0 0)" />
    <path
       d="M465.685,286.048a6.841,6.841,0,0,1,1.049-2.22,9.01,9.01,0,0,1,1.655-1.818,8.621,8.621,0,0,1,2.09-1.307,7.126,7.126,0,0,1,2.364-.621.259.259,0,0,1,.162.476l-.015.01c-.667.421-1.324.769-1.935,1.194a17.364,17.364,0,0,0-1.765,1.321,25.955,25.955,0,0,0-3.142,3.179l-.016.018a.259.259,0,0,1-.447-.232Z"
       style="fill:#39294e"
       id="path362"
       transform="translate(0 0)" />
  </g>
</svg>
